<?xml version="1.0" encoding="utf-8" ?>
<svg viewBox="41 107 875 275" xmlns="http://www.w3.org/2000/svg" xmlns:xlink="http://www.w3.org/1999/xlink" width="875" height="275">
	<path fill="#18181A" d="M94.980469 381.66016Q141.66016 381.66016 156.21094 352.26562Q170.76172 322.87109 179.94141 269.74609L144.49219 269.74609Q134.92188 324.92188 125.25391 340.44922Q115.58594 355.87891 99.179688 355.87891Q82.480469 355.87891 77.988281 339.27734Q73.59375 322.57812 86.875 244.35547Q100.35156 165.25391 110.80078 149.43359Q121.25 133.61328 138.24219 133.61328Q154.74609 133.61328 158.75 148.35938Q162.75391 163.00781 153.08594 219.94141L188.92578 219.94141Q198.00781 165.05859 193.61328 136.54297Q189.21875 107.92969 142.05078 107.92969Q95.859375 107.92969 79.941406 137.51953Q64.121094 167.01172 51.132812 244.35547Q38.144531 320.42969 43.125 351.09375Q48.203125 381.66016 94.980469 381.66016ZM236.18082 381.66016Q282.8605 381.66016 297.41129 352.26562Q311.96207 322.87109 321.14175 269.74609L285.69254 269.74609Q276.12222 324.92188 266.45425 340.44922Q256.78629 355.87891 240.38004 355.87891Q223.68082 355.87891 219.18863 339.27734Q214.7941 322.57812 228.07535 244.35547Q241.55191 165.25391 252.00113 149.43359Q262.45035 133.61328 279.44254 133.61328Q295.94644 133.61328 299.95035 148.35938Q303.95425 163.00781 294.28629 219.94141L330.12613 219.94141Q339.20816 165.05859 334.81363 136.54297Q330.4191 107.92969 283.25113 107.92969Q237.05972 107.92969 221.14175 137.51953Q205.32144 167.01172 192.33316 244.35547Q179.34488 320.42969 184.32535 351.09375Q189.40347 381.66016 236.18082 381.66016Z"/>
	<path fill="#18181A" d="M357.7836 380L393.33047 380L413.74063 264.96094L473.89688 264.96094L478.29141 239.96094L418.23282 239.96094L436.29922 135.76172L501.14297 135.76172L505.63516 109.98047L405.43985 109.98047L357.7836 380ZM478.1604 380L581.48071 380L585.9729 354.21875L518.29712 354.21875L535.77759 254.31641L600.23071 254.31641L604.7229 229.31641L540.26978 229.31641L556.77368 135.76172L624.44946 135.76172L629.03931 109.98047L525.71899 109.98047L478.1604 380ZM666.53955 381.75781Q713.12158 381.75781 727.28174 357.53906Q741.53955 333.32031 745.54346 306.85547Q751.20752 272.1875 742.90674 258.51562Q734.70361 244.74609 703.16064 231.07422Q682.06689 222.38281 675.1333 211.73828Q668.29736 201.09375 672.10596 175.80078Q674.93799 158.22266 684.5083 145.91797Q694.07861 133.61328 709.99658 133.61328Q725.91455 133.61328 730.50439 146.79688Q735.19189 159.88281 726.50049 210.56641L762.14502 210.56641Q770.83643 159.58984 765.7583 133.80859Q760.77783 107.92969 714.68408 107.92969Q668.8833 107.92969 654.23486 132.14844Q639.68408 156.26953 636.0708 181.75781Q631.09033 213.69141 639.00049 229.12109Q646.91064 244.55078 678.35596 257.63672Q698.66846 266.62109 705.89502 277.16797Q713.21924 287.71484 708.82471 313.30078Q705.40674 332.53906 696.22705 344.35547Q687.14502 356.17188 670.73877 356.17188Q654.52783 356.17188 650.03564 343.37891Q645.64111 330.58594 654.8208 277.65625L619.27393 277.65625Q609.60596 332.34375 614.68408 357.05078Q619.76221 381.75781 666.53955 381.75781ZM789.39514 380L824.94202 380L867.91077 135.76172L911.66077 135.76172L916.25061 109.98047L792.81311 109.98047L788.41858 135.76172L832.26624 135.76172L789.39514 380Z"/>
</svg>
